<?xml version="1.0" encoding="utf-8" standalone="no"?>
<!DOCTYPE svg PUBLIC "-//W3C//DTD SVG 1.1//EN"
  "http://www.w3.org/Graphics/SVG/1.1/DTD/svg11.dtd">
<!-- Created with matplotlib (http://matplotlib.org/) -->
<svg height="154pt" version="1.1" viewBox="0 0 431 154" width="431pt" xmlns="http://www.w3.org/2000/svg" xmlns:xlink="http://www.w3.org/1999/xlink">
 <defs>
  <style type="text/css">
*{stroke-linecap:butt;stroke-linejoin:round;}
  </style>
 </defs>
 <g id="figure_1">
  <g id="patch_1">
   <path d="M 0 154.265313 
L 431.460938 154.265313 
L 431.460938 0 
L 0 0 
z
" style="fill:none;"/>
  </g>
  <g id="axes_1">
   <g id="patch_2">
    <path d="M 33.660938 130.92 
L 148.54329 130.92 
L 148.54329 22.2 
L 33.660938 22.2 
z
" style="fill:#eaeaf2;"/>
   </g>
   <g id="matplotlib.axis_1">
    <g id="xtick_1">
     <g id="line2d_1">
      <path clip-path="url(#pe2a4ad1866)" d="M 38.882863 130.92 
L 38.882863 22.2 
" style="fill:none;stroke:#ffffff;stroke-linecap:round;"/>
     </g>
     <g id="line2d_2"/>
     <g id="text_1">
      <!-- −1 -->
      <defs>
       <path d="M 52.828125 31.203125 
L 5.5625 31.203125 
L 5.5625 39.40625 
L 52.828125 39.40625 
z
" id="ArialMT-2212"/>
       <path d="M 37.25 0 
L 28.46875 0 
L 28.46875 56 
Q 25.296875 52.984375 20.140625 49.953125 
Q 14.984375 46.921875 10.890625 45.40625 
L 10.890625 53.90625 
Q 18.265625 57.375 23.78125 62.296875 
Q 29.296875 67.234375 31.59375 71.875 
L 37.25 71.875 
z
" id="ArialMT-31"/>
      </defs>
      <g style="fill:#262626;" transform="translate(33.182081 145.077813)scale(0.1 -0.1)">
       <use xlink:href="#ArialMT-2212"/>
       <use x="58.398438" xlink:href="#ArialMT-31"/>
      </g>
     </g>
    </g>
    <g id="xtick_2">
     <g id="line2d_3">
      <path clip-path="url(#pe2a4ad1866)" d="M 91.102114 130.92 
L 91.102114 22.2 
" style="fill:none;stroke:#ffffff;stroke-linecap:round;"/>
     </g>
     <g id="line2d_4"/>
     <g id="text_2">
      <!-- 0 -->
      <defs>
       <path d="M 4.15625 35.296875 
Q 4.15625 48 6.765625 55.734375 
Q 9.375 63.484375 14.515625 67.671875 
Q 19.671875 71.875 27.484375 71.875 
Q 33.25 71.875 37.59375 69.546875 
Q 41.9375 67.234375 44.765625 62.859375 
Q 47.609375 58.5 49.21875 52.21875 
Q 50.828125 45.953125 50.828125 35.296875 
Q 50.828125 22.703125 48.234375 14.96875 
Q 45.65625 7.234375 40.5 3 
Q 35.359375 -1.21875 27.484375 -1.21875 
Q 17.140625 -1.21875 11.234375 6.203125 
Q 4.15625 15.140625 4.15625 35.296875 
z
M 13.1875 35.296875 
Q 13.1875 17.671875 17.3125 11.828125 
Q 21.4375 6 27.484375 6 
Q 33.546875 6 37.671875 11.859375 
Q 41.796875 17.71875 41.796875 35.296875 
Q 41.796875 52.984375 37.671875 58.78125 
Q 33.546875 64.59375 27.390625 64.59375 
Q 21.34375 64.59375 17.71875 59.46875 
Q 13.1875 52.9375 13.1875 35.296875 
z
" id="ArialMT-30"/>
      </defs>
      <g style="fill:#262626;" transform="translate(88.321645 145.077813)scale(0.1 -0.1)">
       <use xlink:href="#ArialMT-30"/>
      </g>
     </g>
    </g>
    <g id="xtick_3">
     <g id="line2d_5">
      <path clip-path="url(#pe2a4ad1866)" d="M 143.321365 130.92 
L 143.321365 22.2 
" style="fill:none;stroke:#ffffff;stroke-linecap:round;"/>
     </g>
     <g id="line2d_6"/>
     <g id="text_3">
      <!-- 1 -->
      <g style="fill:#262626;" transform="translate(140.540897 145.077813)scale(0.1 -0.1)">
       <use xlink:href="#ArialMT-31"/>
      </g>
     </g>
    </g>
   </g>
   <g id="matplotlib.axis_2">
    <g id="ytick_1">
     <g id="line2d_7">
      <path clip-path="url(#pe2a4ad1866)" d="M 33.660938 125.978182 
L 148.54329 125.978182 
" style="fill:none;stroke:#ffffff;stroke-linecap:round;"/>
     </g>
     <g id="line2d_8"/>
     <g id="text_4">
      <!-- 0.00 -->
      <defs>
       <path d="M 9.078125 0 
L 9.078125 10.015625 
L 19.09375 10.015625 
L 19.09375 0 
z
" id="ArialMT-2e"/>
      </defs>
      <g style="fill:#262626;" transform="translate(7.2 129.557088)scale(0.1 -0.1)">
       <use xlink:href="#ArialMT-30"/>
       <use x="55.615234" xlink:href="#ArialMT-2e"/>
       <use x="83.398438" xlink:href="#ArialMT-30"/>
       <use x="139.013672" xlink:href="#ArialMT-30"/>
      </g>
     </g>
    </g>
    <g id="ytick_2">
     <g id="line2d_9">
      <path clip-path="url(#pe2a4ad1866)" d="M 33.660938 101.269091 
L 148.54329 101.269091 
" style="fill:none;stroke:#ffffff;stroke-linecap:round;"/>
     </g>
     <g id="line2d_10"/>
     <g id="text_5">
      <!-- 0.25 -->
      <defs>
       <path d="M 50.34375 8.453125 
L 50.34375 0 
L 3.03125 0 
Q 2.9375 3.171875 4.046875 6.109375 
Q 5.859375 10.9375 9.828125 15.625 
Q 13.8125 20.3125 21.34375 26.46875 
Q 33.015625 36.03125 37.109375 41.625 
Q 41.21875 47.21875 41.21875 52.203125 
Q 41.21875 57.421875 37.46875 61 
Q 33.734375 64.59375 27.734375 64.59375 
Q 21.390625 64.59375 17.578125 60.78125 
Q 13.765625 56.984375 13.71875 50.25 
L 4.6875 51.171875 
Q 5.609375 61.28125 11.65625 66.578125 
Q 17.71875 71.875 27.9375 71.875 
Q 38.234375 71.875 44.234375 66.15625 
Q 50.25 60.453125 50.25 52 
Q 50.25 47.703125 48.484375 43.546875 
Q 46.734375 39.40625 42.65625 34.8125 
Q 38.578125 30.21875 29.109375 22.21875 
Q 21.1875 15.578125 18.9375 13.203125 
Q 16.703125 10.84375 15.234375 8.453125 
z
" id="ArialMT-32"/>
       <path d="M 4.15625 18.75 
L 13.375 19.53125 
Q 14.40625 12.796875 18.140625 9.390625 
Q 21.875 6 27.15625 6 
Q 33.5 6 37.890625 10.78125 
Q 42.28125 15.578125 42.28125 23.484375 
Q 42.28125 31 38.0625 35.34375 
Q 33.84375 39.703125 27 39.703125 
Q 22.75 39.703125 19.328125 37.765625 
Q 15.921875 35.84375 13.96875 32.765625 
L 5.71875 33.84375 
L 12.640625 70.609375 
L 48.25 70.609375 
L 48.25 62.203125 
L 19.671875 62.203125 
L 15.828125 42.96875 
Q 22.265625 47.46875 29.34375 47.46875 
Q 38.71875 47.46875 45.15625 40.96875 
Q 51.609375 34.46875 51.609375 24.265625 
Q 51.609375 14.546875 45.953125 7.46875 
Q 39.0625 -1.21875 27.15625 -1.21875 
Q 17.390625 -1.21875 11.203125 4.25 
Q 5.03125 9.71875 4.15625 18.75 
z
" id="ArialMT-35"/>
      </defs>
      <g style="fill:#262626;" transform="translate(7.2 104.847997)scale(0.1 -0.1)">
       <use xlink:href="#ArialMT-30"/>
       <use x="55.615234" xlink:href="#ArialMT-2e"/>
       <use x="83.398438" xlink:href="#ArialMT-32"/>
       <use x="139.013672" xlink:href="#ArialMT-35"/>
      </g>
     </g>
    </g>
    <g id="ytick_3">
     <g id="line2d_11">
      <path clip-path="url(#pe2a4ad1866)" d="M 33.660938 76.56 
L 148.54329 76.56 
" style="fill:none;stroke:#ffffff;stroke-linecap:round;"/>
     </g>
     <g id="line2d_12"/>
     <g id="text_6">
      <!-- 0.50 -->
      <g style="fill:#262626;" transform="translate(7.2 80.138906)scale(0.1 -0.1)">
       <use xlink:href="#ArialMT-30"/>
       <use x="55.615234" xlink:href="#ArialMT-2e"/>
       <use x="83.398438" xlink:href="#ArialMT-35"/>
       <use x="139.013672" xlink:href="#ArialMT-30"/>
      </g>
     </g>
    </g>
    <g id="ytick_4">
     <g id="line2d_13">
      <path clip-path="url(#pe2a4ad1866)" d="M 33.660938 51.850909 
L 148.54329 51.850909 
" style="fill:none;stroke:#ffffff;stroke-linecap:round;"/>
     </g>
     <g id="line2d_14"/>
     <g id="text_7">
      <!-- 0.75 -->
      <defs>
       <path d="M 4.734375 62.203125 
L 4.734375 70.65625 
L 51.078125 70.65625 
L 51.078125 63.8125 
Q 44.234375 56.546875 37.515625 44.484375 
Q 30.8125 32.421875 27.15625 19.671875 
Q 24.515625 10.6875 23.78125 0 
L 14.75 0 
Q 14.890625 8.453125 18.0625 20.40625 
Q 21.234375 32.375 27.171875 43.484375 
Q 33.109375 54.59375 39.796875 62.203125 
z
" id="ArialMT-37"/>
      </defs>
      <g style="fill:#262626;" transform="translate(7.2 55.429815)scale(0.1 -0.1)">
       <use xlink:href="#ArialMT-30"/>
       <use x="55.615234" xlink:href="#ArialMT-2e"/>
       <use x="83.398438" xlink:href="#ArialMT-37"/>
       <use x="139.013672" xlink:href="#ArialMT-35"/>
      </g>
     </g>
    </g>
    <g id="ytick_5">
     <g id="line2d_15">
      <path clip-path="url(#pe2a4ad1866)" d="M 33.660938 27.141818 
L 148.54329 27.141818 
" style="fill:none;stroke:#ffffff;stroke-linecap:round;"/>
     </g>
     <g id="line2d_16"/>
     <g id="text_8">
      <!-- 1.00 -->
      <g style="fill:#262626;" transform="translate(7.2 30.720724)scale(0.1 -0.1)">
       <use xlink:href="#ArialMT-31"/>
       <use x="55.615234" xlink:href="#ArialMT-2e"/>
       <use x="83.398438" xlink:href="#ArialMT-30"/>
       <use x="139.013672" xlink:href="#ArialMT-30"/>
      </g>
     </g>
    </g>
   </g>
   <g id="line2d_17">
    <path clip-path="url(#pe2a4ad1866)" d="M 38.882863 27.141818 
L 40.653007 28.817011 
L 42.423151 30.492203 
L 44.193295 32.167396 
L 45.963439 33.842589 
L 47.733583 35.517781 
L 49.503727 37.192974 
L 51.273871 38.868166 
L 53.044016 40.543359 
L 54.81416 42.218552 
L 56.584304 43.893744 
L 58.354448 45.568937 
L 60.124592 47.244129 
L 61.894736 48.919322 
L 63.66488 50.594515 
L 65.435024 52.269707 
L 67.205168 53.9449 
L 68.975313 55.620092 
L 70.745457 57.295285 
L 72.515601 58.970478 
L 74.285745 60.64567 
L 76.055889 62.320863 
L 77.826033 63.996055 
L 79.596177 65.671248 
L 81.366321 67.346441 
L 83.136465 69.021633 
L 84.90661 70.696826 
L 86.676754 72.372018 
L 88.446898 74.047211 
L 90.217042 75.722404 
L 91.987186 77.397596 
L 93.75733 79.072789 
L 95.527474 80.747982 
L 97.297618 82.423174 
L 99.067762 84.098367 
L 100.837907 85.773559 
L 102.608051 87.448752 
L 104.378195 89.123945 
L 106.148339 90.799137 
L 107.918483 92.47433 
L 109.688627 94.149522 
L 111.458771 95.824715 
L 113.228915 97.499908 
L 114.999059 99.1751 
L 116.769204 100.850293 
L 118.539348 102.525485 
L 120.309492 104.200678 
L 122.079636 105.875871 
L 123.84978 107.551063 
L 125.619924 109.226256 
L 127.390068 110.901448 
L 129.160212 112.576641 
L 130.930357 114.251834 
L 132.700501 115.927026 
L 134.470645 117.602219 
L 136.240789 119.277411 
L 138.010933 120.952604 
L 139.781077 122.627797 
L 141.551221 124.302989 
L 143.321365 125.978182 
" style="fill:none;stroke:#4c72b0;stroke-linecap:round;stroke-width:1.75;"/>
   </g>
   <g id="line2d_18">
    <path clip-path="url(#pe2a4ad1866)" d="M 38.882863 125.978182 
L 40.653007 124.302989 
L 42.423151 122.627797 
L 44.193295 120.952604 
L 45.963439 119.277411 
L 47.733583 117.602219 
L 49.503727 115.927026 
L 51.273871 114.251834 
L 53.044016 112.576641 
L 54.81416 110.901448 
L 56.584304 109.226256 
L 58.354448 107.551063 
L 60.124592 105.875871 
L 61.894736 104.200678 
L 63.66488 102.525485 
L 65.435024 100.850293 
L 67.205168 99.1751 
L 68.975313 97.499908 
L 70.745457 95.824715 
L 72.515601 94.149522 
L 74.285745 92.47433 
L 76.055889 90.799137 
L 77.826033 89.123945 
L 79.596177 87.448752 
L 81.366321 85.773559 
L 83.136465 84.098367 
L 84.90661 82.423174 
L 86.676754 80.747982 
L 88.446898 79.072789 
L 90.217042 77.397596 
L 91.987186 75.722404 
L 93.75733 74.047211 
L 95.527474 72.372018 
L 97.297618 70.696826 
L 99.067762 69.021633 
L 100.837907 67.346441 
L 102.608051 65.671248 
L 104.378195 63.996055 
L 106.148339 62.320863 
L 107.918483 60.64567 
L 109.688627 58.970478 
L 111.458771 57.295285 
L 113.228915 55.620092 
L 114.999059 53.9449 
L 116.769204 52.269707 
L 118.539348 50.594515 
L 120.309492 48.919322 
L 122.079636 47.244129 
L 123.84978 45.568937 
L 125.619924 43.893744 
L 127.390068 42.218552 
L 129.160212 40.543359 
L 130.930357 38.868166 
L 132.700501 37.192974 
L 134.470645 35.517781 
L 136.240789 33.842589 
L 138.010933 32.167396 
L 139.781077 30.492203 
L 141.551221 28.817011 
L 143.321365 27.141818 
" style="fill:none;stroke:#55a868;stroke-linecap:round;stroke-width:1.75;"/>
   </g>
   <g id="patch_3">
    <path d="M 33.660938 130.92 
L 33.660938 22.2 
" style="fill:none;"/>
   </g>
   <g id="patch_4">
    <path d="M 148.54329 130.92 
L 148.54329 22.2 
" style="fill:none;"/>
   </g>
   <g id="patch_5">
    <path d="M 33.660937 130.92 
L 148.54329 130.92 
" style="fill:none;"/>
   </g>
   <g id="patch_6">
    <path d="M 33.660937 22.2 
L 148.54329 22.2 
" style="fill:none;"/>
   </g>
   <g id="text_9">
    <!-- nodal basis, $p = 1$ -->
    <defs>
     <path d="M 6.59375 0 
L 6.59375 51.859375 
L 14.5 51.859375 
L 14.5 44.484375 
Q 20.21875 53.03125 31 53.03125 
Q 35.6875 53.03125 39.625 51.34375 
Q 43.5625 49.65625 45.515625 46.921875 
Q 47.46875 44.1875 48.25 40.4375 
Q 48.734375 37.984375 48.734375 31.890625 
L 48.734375 0 
L 39.9375 0 
L 39.9375 31.546875 
Q 39.9375 36.921875 38.90625 39.578125 
Q 37.890625 42.234375 35.28125 43.8125 
Q 32.671875 45.40625 29.15625 45.40625 
Q 23.53125 45.40625 19.453125 41.84375 
Q 15.375 38.28125 15.375 28.328125 
L 15.375 0 
z
" id="ArialMT-6e"/>
     <path d="M 3.328125 25.921875 
Q 3.328125 40.328125 11.328125 47.265625 
Q 18.015625 53.03125 27.640625 53.03125 
Q 38.328125 53.03125 45.109375 46.015625 
Q 51.90625 39.015625 51.90625 26.65625 
Q 51.90625 16.65625 48.90625 10.90625 
Q 45.90625 5.171875 40.15625 2 
Q 34.421875 -1.171875 27.640625 -1.171875 
Q 16.75 -1.171875 10.03125 5.8125 
Q 3.328125 12.796875 3.328125 25.921875 
z
M 12.359375 25.921875 
Q 12.359375 15.96875 16.703125 11.015625 
Q 21.046875 6.0625 27.640625 6.0625 
Q 34.1875 6.0625 38.53125 11.03125 
Q 42.875 16.015625 42.875 26.21875 
Q 42.875 35.84375 38.5 40.796875 
Q 34.125 45.75 27.640625 45.75 
Q 21.046875 45.75 16.703125 40.8125 
Q 12.359375 35.890625 12.359375 25.921875 
z
" id="ArialMT-6f"/>
     <path d="M 40.234375 0 
L 40.234375 6.546875 
Q 35.296875 -1.171875 25.734375 -1.171875 
Q 19.53125 -1.171875 14.328125 2.25 
Q 9.125 5.671875 6.265625 11.796875 
Q 3.421875 17.921875 3.421875 25.875 
Q 3.421875 33.640625 6 39.96875 
Q 8.59375 46.296875 13.765625 49.65625 
Q 18.953125 53.03125 25.34375 53.03125 
Q 30.03125 53.03125 33.6875 51.046875 
Q 37.359375 49.078125 39.65625 45.90625 
L 39.65625 71.578125 
L 48.390625 71.578125 
L 48.390625 0 
z
M 12.453125 25.875 
Q 12.453125 15.921875 16.640625 10.984375 
Q 20.84375 6.0625 26.5625 6.0625 
Q 32.328125 6.0625 36.34375 10.765625 
Q 40.375 15.484375 40.375 25.140625 
Q 40.375 35.796875 36.265625 40.765625 
Q 32.171875 45.75 26.171875 45.75 
Q 20.3125 45.75 16.375 40.96875 
Q 12.453125 36.1875 12.453125 25.875 
z
" id="ArialMT-64"/>
     <path d="M 40.4375 6.390625 
Q 35.546875 2.25 31.03125 0.53125 
Q 26.515625 -1.171875 21.34375 -1.171875 
Q 12.796875 -1.171875 8.203125 3 
Q 3.609375 7.171875 3.609375 13.671875 
Q 3.609375 17.484375 5.34375 20.625 
Q 7.078125 23.78125 9.890625 25.6875 
Q 12.703125 27.59375 16.21875 28.5625 
Q 18.796875 29.25 24.03125 29.890625 
Q 34.671875 31.15625 39.703125 32.90625 
Q 39.75 34.71875 39.75 35.203125 
Q 39.75 40.578125 37.25 42.78125 
Q 33.890625 45.75 27.25 45.75 
Q 21.046875 45.75 18.09375 43.578125 
Q 15.140625 41.40625 13.71875 35.890625 
L 5.125 37.0625 
Q 6.296875 42.578125 8.984375 45.96875 
Q 11.671875 49.359375 16.75 51.1875 
Q 21.828125 53.03125 28.515625 53.03125 
Q 35.15625 53.03125 39.296875 51.46875 
Q 43.453125 49.90625 45.40625 47.53125 
Q 47.359375 45.171875 48.140625 41.546875 
Q 48.578125 39.3125 48.578125 33.453125 
L 48.578125 21.734375 
Q 48.578125 9.46875 49.140625 6.21875 
Q 49.703125 2.984375 51.375 0 
L 42.1875 0 
Q 40.828125 2.734375 40.4375 6.390625 
z
M 39.703125 26.03125 
Q 34.90625 24.078125 25.34375 22.703125 
Q 19.921875 21.921875 17.671875 20.9375 
Q 15.4375 19.96875 14.203125 18.09375 
Q 12.984375 16.21875 12.984375 13.921875 
Q 12.984375 10.40625 15.640625 8.0625 
Q 18.3125 5.71875 23.4375 5.71875 
Q 28.515625 5.71875 32.46875 7.9375 
Q 36.421875 10.15625 38.28125 14.015625 
Q 39.703125 17 39.703125 22.796875 
z
" id="ArialMT-61"/>
     <path d="M 6.390625 0 
L 6.390625 71.578125 
L 15.1875 71.578125 
L 15.1875 0 
z
" id="ArialMT-6c"/>
     <path id="ArialMT-20"/>
     <path d="M 14.703125 0 
L 6.546875 0 
L 6.546875 71.578125 
L 15.328125 71.578125 
L 15.328125 46.046875 
Q 20.90625 53.03125 29.546875 53.03125 
Q 34.328125 53.03125 38.59375 51.09375 
Q 42.875 49.171875 45.625 45.671875 
Q 48.390625 42.1875 49.953125 37.25 
Q 51.515625 32.328125 51.515625 26.703125 
Q 51.515625 13.375 44.921875 6.09375 
Q 38.328125 -1.171875 29.109375 -1.171875 
Q 19.921875 -1.171875 14.703125 6.5 
z
M 14.59375 26.3125 
Q 14.59375 17 17.140625 12.84375 
Q 21.296875 6.0625 28.375 6.0625 
Q 34.125 6.0625 38.328125 11.0625 
Q 42.53125 16.0625 42.53125 25.984375 
Q 42.53125 36.140625 38.5 40.96875 
Q 34.46875 45.796875 28.765625 45.796875 
Q 23 45.796875 18.796875 40.796875 
Q 14.59375 35.796875 14.59375 26.3125 
z
" id="ArialMT-62"/>
     <path d="M 3.078125 15.484375 
L 11.765625 16.84375 
Q 12.5 11.625 15.84375 8.84375 
Q 19.1875 6.0625 25.203125 6.0625 
Q 31.25 6.0625 34.171875 8.515625 
Q 37.109375 10.984375 37.109375 14.3125 
Q 37.109375 17.28125 34.515625 19 
Q 32.71875 20.171875 25.53125 21.96875 
Q 15.875 24.421875 12.140625 26.203125 
Q 8.40625 27.984375 6.46875 31.125 
Q 4.546875 34.28125 4.546875 38.09375 
Q 4.546875 41.546875 6.125 44.5 
Q 7.71875 47.46875 10.453125 49.421875 
Q 12.5 50.921875 16.03125 51.96875 
Q 19.578125 53.03125 23.640625 53.03125 
Q 29.734375 53.03125 34.34375 51.265625 
Q 38.96875 49.515625 41.15625 46.5 
Q 43.359375 43.5 44.1875 38.484375 
L 35.59375 37.3125 
Q 35.015625 41.3125 32.203125 43.546875 
Q 29.390625 45.796875 24.265625 45.796875 
Q 18.21875 45.796875 15.625 43.796875 
Q 13.03125 41.796875 13.03125 39.109375 
Q 13.03125 37.40625 14.109375 36.03125 
Q 15.1875 34.625 17.484375 33.6875 
Q 18.796875 33.203125 25.25 31.453125 
Q 34.578125 28.953125 38.25 27.359375 
Q 41.9375 25.78125 44.03125 22.75 
Q 46.140625 19.734375 46.140625 15.234375 
Q 46.140625 10.84375 43.578125 6.953125 
Q 41.015625 3.078125 36.171875 0.953125 
Q 31.34375 -1.171875 25.25 -1.171875 
Q 15.140625 -1.171875 9.84375 3.03125 
Q 4.546875 7.234375 3.078125 15.484375 
z
" id="ArialMT-73"/>
     <path d="M 6.640625 61.46875 
L 6.640625 71.578125 
L 15.4375 71.578125 
L 15.4375 61.46875 
z
M 6.640625 0 
L 6.640625 51.859375 
L 15.4375 51.859375 
L 15.4375 0 
z
" id="ArialMT-69"/>
     <path d="M 8.890625 0 
L 8.890625 10.015625 
L 18.890625 10.015625 
L 18.890625 0 
Q 18.890625 -5.515625 16.9375 -8.90625 
Q 14.984375 -12.3125 10.75 -14.15625 
L 8.296875 -10.40625 
Q 11.078125 -9.1875 12.390625 -6.8125 
Q 13.71875 -4.4375 13.875 0 
z
" id="ArialMT-2c"/>
     <path d="M 49.609375 33.6875 
Q 49.609375 40.875 46.484375 44.671875 
Q 43.359375 48.484375 37.5 48.484375 
Q 33.5 48.484375 29.859375 46.4375 
Q 26.21875 44.390625 23.390625 40.484375 
Q 20.609375 36.625 18.9375 31.15625 
Q 17.28125 25.6875 17.28125 20.3125 
Q 17.28125 13.484375 20.40625 9.796875 
Q 23.53125 6.109375 29.296875 6.109375 
Q 33.546875 6.109375 37.1875 8.109375 
Q 40.828125 10.109375 43.40625 13.921875 
Q 46.1875 17.921875 47.890625 23.34375 
Q 49.609375 28.765625 49.609375 33.6875 
z
M 21.78125 46.390625 
Q 25.390625 51.125 30.296875 53.5625 
Q 35.203125 56 41.21875 56 
Q 49.609375 56 54.25 50.5 
Q 58.890625 45.015625 58.890625 35.109375 
Q 58.890625 27 56 19.65625 
Q 53.125 12.3125 47.703125 6.5 
Q 44.09375 2.640625 39.546875 0.609375 
Q 35.015625 -1.421875 29.984375 -1.421875 
Q 24.171875 -1.421875 20.21875 1 
Q 16.265625 3.421875 14.3125 8.203125 
L 8.6875 -20.796875 
L -0.296875 -20.796875 
L 14.40625 54.6875 
L 23.390625 54.6875 
z
" id="DejaVuSans-Oblique-70"/>
     <path d="M 10.59375 45.40625 
L 73.1875 45.40625 
L 73.1875 37.203125 
L 10.59375 37.203125 
z
M 10.59375 25.484375 
L 73.1875 25.484375 
L 73.1875 17.1875 
L 10.59375 17.1875 
z
" id="DejaVuSans-3d"/>
     <path d="M 12.40625 8.296875 
L 28.515625 8.296875 
L 28.515625 63.921875 
L 10.984375 60.40625 
L 10.984375 69.390625 
L 28.421875 72.90625 
L 38.28125 72.90625 
L 38.28125 8.296875 
L 54.390625 8.296875 
L 54.390625 0 
L 12.40625 0 
z
" id="DejaVuSans-31"/>
    </defs>
    <g style="fill:#262626;" transform="translate(42.382114 16.2)scale(0.12 -0.12)">
     <use transform="translate(0 0.09375)" xlink:href="#ArialMT-6e"/>
     <use transform="translate(55.615234 0.09375)" xlink:href="#ArialMT-6f"/>
     <use transform="translate(111.230469 0.09375)" xlink:href="#ArialMT-64"/>
     <use transform="translate(166.845703 0.09375)" xlink:href="#ArialMT-61"/>
     <use transform="translate(222.460938 0.09375)" xlink:href="#ArialMT-6c"/>
     <use transform="translate(244.677734 0.09375)" xlink:href="#ArialMT-20"/>
     <use transform="translate(272.460938 0.09375)" xlink:href="#ArialMT-62"/>
     <use transform="translate(328.076172 0.09375)" xlink:href="#ArialMT-61"/>
     <use transform="translate(383.691406 0.09375)" xlink:href="#ArialMT-73"/>
     <use transform="translate(433.691406 0.09375)" xlink:href="#ArialMT-69"/>
     <use transform="translate(455.908203 0.09375)" xlink:href="#ArialMT-73"/>
     <use transform="translate(505.908203 0.09375)" xlink:href="#ArialMT-2c"/>
     <use transform="translate(533.691406 0.09375)" xlink:href="#ArialMT-20"/>
     <use transform="translate(561.474609 0.09375)" xlink:href="#DejaVuSans-Oblique-70"/>
     <use transform="translate(644.433594 0.09375)" xlink:href="#DejaVuSans-3d"/>
     <use transform="translate(747.705078 0.09375)" xlink:href="#DejaVuSans-31"/>
    </g>
   </g>
  </g>
  <g id="axes_2">
   <g id="patch_7">
    <path d="M 171.519761 130.92 
L 286.402114 130.92 
L 286.402114 22.2 
L 171.519761 22.2 
z
" style="fill:#eaeaf2;"/>
   </g>
   <g id="matplotlib.axis_3">
    <g id="xtick_4">
     <g id="line2d_19">
      <path clip-path="url(#pa7d1bb6f06)" d="M 176.741686 130.92 
L 176.741686 22.2 
" style="fill:none;stroke:#ffffff;stroke-linecap:round;"/>
     </g>
     <g id="line2d_20"/>
     <g id="text_10">
      <!-- −1 -->
      <g style="fill:#262626;" transform="translate(171.040905 145.077813)scale(0.1 -0.1)">
       <use xlink:href="#ArialMT-2212"/>
       <use x="58.398438" xlink:href="#ArialMT-31"/>
      </g>
     </g>
    </g>
    <g id="xtick_5">
     <g id="line2d_21">
      <path clip-path="url(#pa7d1bb6f06)" d="M 228.960938 130.92 
L 228.960938 22.2 
" style="fill:none;stroke:#ffffff;stroke-linecap:round;"/>
     </g>
     <g id="line2d_22"/>
     <g id="text_11">
      <!-- 0 -->
      <g style="fill:#262626;" transform="translate(226.180469 145.077813)scale(0.1 -0.1)">
       <use xlink:href="#ArialMT-30"/>
      </g>
     </g>
    </g>
    <g id="xtick_6">
     <g id="line2d_23">
      <path clip-path="url(#pa7d1bb6f06)" d="M 281.180189 130.92 
L 281.180189 22.2 
" style="fill:none;stroke:#ffffff;stroke-linecap:round;"/>
     </g>
     <g id="line2d_24"/>
     <g id="text_12">
      <!-- 1 -->
      <g style="fill:#262626;" transform="translate(278.39972 145.077813)scale(0.1 -0.1)">
       <use xlink:href="#ArialMT-31"/>
      </g>
     </g>
    </g>
   </g>
   <g id="matplotlib.axis_4">
    <g id="ytick_6">
     <g id="line2d_25">
      <path clip-path="url(#pa7d1bb6f06)" d="M 171.519761 114.999168 
L 286.402114 114.999168 
" style="fill:none;stroke:#ffffff;stroke-linecap:round;"/>
     </g>
     <g id="line2d_26"/>
     <g id="text_13">
      <!-- 0.00 -->
      <g style="fill:#262626;" transform="translate(145.058824 118.578074)scale(0.1 -0.1)">
       <use xlink:href="#ArialMT-30"/>
       <use x="55.615234" xlink:href="#ArialMT-2e"/>
       <use x="83.398438" xlink:href="#ArialMT-30"/>
       <use x="139.013672" xlink:href="#ArialMT-30"/>
      </g>
     </g>
    </g>
    <g id="ytick_7">
     <g id="line2d_27">
      <path clip-path="url(#pa7d1bb6f06)" d="M 171.519761 93.034831 
L 286.402114 93.034831 
" style="fill:none;stroke:#ffffff;stroke-linecap:round;"/>
     </g>
     <g id="line2d_28"/>
     <g id="text_14">
      <!-- 0.25 -->
      <g style="fill:#262626;" transform="translate(145.058824 96.613737)scale(0.1 -0.1)">
       <use xlink:href="#ArialMT-30"/>
       <use x="55.615234" xlink:href="#ArialMT-2e"/>
       <use x="83.398438" xlink:href="#ArialMT-32"/>
       <use x="139.013672" xlink:href="#ArialMT-35"/>
      </g>
     </g>
    </g>
    <g id="ytick_8">
     <g id="line2d_29">
      <path clip-path="url(#pa7d1bb6f06)" d="M 171.519761 71.070493 
L 286.402114 71.070493 
" style="fill:none;stroke:#ffffff;stroke-linecap:round;"/>
     </g>
     <g id="line2d_30"/>
     <g id="text_15">
      <!-- 0.50 -->
      <g style="fill:#262626;" transform="translate(145.058824 74.649399)scale(0.1 -0.1)">
       <use xlink:href="#ArialMT-30"/>
       <use x="55.615234" xlink:href="#ArialMT-2e"/>
       <use x="83.398438" xlink:href="#ArialMT-35"/>
       <use x="139.013672" xlink:href="#ArialMT-30"/>
      </g>
     </g>
    </g>
    <g id="ytick_9">
     <g id="line2d_31">
      <path clip-path="url(#pa7d1bb6f06)" d="M 171.519761 49.106156 
L 286.402114 49.106156 
" style="fill:none;stroke:#ffffff;stroke-linecap:round;"/>
     </g>
     <g id="line2d_32"/>
     <g id="text_16">
      <!-- 0.75 -->
      <g style="fill:#262626;" transform="translate(145.058824 52.685062)scale(0.1 -0.1)">
       <use xlink:href="#ArialMT-30"/>
       <use x="55.615234" xlink:href="#ArialMT-2e"/>
       <use x="83.398438" xlink:href="#ArialMT-37"/>
       <use x="139.013672" xlink:href="#ArialMT-35"/>
      </g>
     </g>
    </g>
    <g id="ytick_10">
     <g id="line2d_33">
      <path clip-path="url(#pa7d1bb6f06)" d="M 171.519761 27.141818 
L 286.402114 27.141818 
" style="fill:none;stroke:#ffffff;stroke-linecap:round;"/>
     </g>
     <g id="line2d_34"/>
     <g id="text_17">
      <!-- 1.00 -->
      <g style="fill:#262626;" transform="translate(145.058824 30.720724)scale(0.1 -0.1)">
       <use xlink:href="#ArialMT-31"/>
       <use x="55.615234" xlink:href="#ArialMT-2e"/>
       <use x="83.398438" xlink:href="#ArialMT-30"/>
       <use x="139.013672" xlink:href="#ArialMT-30"/>
      </g>
     </g>
    </g>
   </g>
   <g id="line2d_35">
    <path clip-path="url(#pa7d1bb6f06)" d="M 176.741686 27.141818 
L 178.51183 31.558663 
L 180.281974 35.874551 
L 182.052119 40.089483 
L 183.822263 44.203458 
L 185.592407 48.216477 
L 187.362551 52.128539 
L 189.132695 55.939645 
L 190.902839 59.649795 
L 192.672983 63.258988 
L 194.443127 66.767224 
L 196.213271 70.174505 
L 197.983416 73.480828 
L 199.75356 76.686196 
L 201.523704 79.790606 
L 203.293848 82.794061 
L 205.063992 85.696559 
L 206.834136 88.4981 
L 208.60428 91.198685 
L 210.374424 93.798314 
L 212.144568 96.296986 
L 213.914713 98.694701 
L 215.684857 100.991461 
L 217.455001 103.187263 
L 219.225145 105.28211 
L 220.995289 107.276 
L 222.765433 109.168933 
L 224.535577 110.96091 
L 226.305721 112.651931 
L 228.075865 114.241995 
L 229.84601 115.731102 
L 231.616154 117.119253 
L 233.386298 118.406448 
L 235.156442 119.592686 
L 236.926586 120.677968 
L 238.69673 121.662294 
L 240.466874 122.545663 
L 242.237018 123.328075 
L 244.007162 124.009531 
L 245.777307 124.590031 
L 247.547451 125.069574 
L 249.317595 125.44816 
L 251.087739 125.725791 
L 252.857883 125.902464 
L 254.628027 125.978182 
L 256.398171 125.952943 
L 258.168315 125.826747 
L 259.938459 125.599595 
L 261.708604 125.271487 
L 263.478748 124.842422 
L 265.248892 124.3124 
L 267.019036 123.681423 
L 268.78918 122.949488 
L 270.559324 122.116598 
L 272.329468 121.18275 
L 274.099612 120.147947 
L 275.869756 119.012187 
L 277.639901 117.77547 
L 279.410045 116.437797 
L 281.180189 114.999168 
" style="fill:none;stroke:#4c72b0;stroke-linecap:round;stroke-width:1.75;"/>
   </g>
   <g id="line2d_36">
    <path clip-path="url(#pa7d1bb6f06)" d="M 176.741686 114.999168 
L 178.51183 109.143694 
L 180.281974 103.490133 
L 182.052119 98.038485 
L 183.822263 92.788749 
L 185.592407 87.740927 
L 187.362551 82.895017 
L 189.132695 78.251021 
L 190.902839 73.808937 
L 192.672983 69.568766 
L 194.443127 65.530508 
L 196.213271 61.694163 
L 197.983416 58.059731 
L 199.75356 54.627211 
L 201.523704 51.396605 
L 203.293848 48.367912 
L 205.063992 45.541131 
L 206.834136 42.916263 
L 208.60428 40.493309 
L 210.374424 38.272267 
L 212.144568 36.253138 
L 213.914713 34.435922 
L 215.684857 32.820618 
L 217.455001 31.407228 
L 219.225145 30.195751 
L 220.995289 29.186186 
L 222.765433 28.378535 
L 224.535577 27.772796 
L 226.305721 27.36897 
L 228.075865 27.167057 
L 229.84601 27.167057 
L 231.616154 27.36897 
L 233.386298 27.772796 
L 235.156442 28.378535 
L 236.926586 29.186186 
L 238.69673 30.195751 
L 240.466874 31.407228 
L 242.237018 32.820618 
L 244.007162 34.435922 
L 245.777307 36.253138 
L 247.547451 38.272267 
L 249.317595 40.493309 
L 251.087739 42.916263 
L 252.857883 45.541131 
L 254.628027 48.367912 
L 256.398171 51.396605 
L 258.168315 54.627211 
L 259.938459 58.059731 
L 261.708604 61.694163 
L 263.478748 65.530508 
L 265.248892 69.568766 
L 267.019036 73.808937 
L 268.78918 78.251021 
L 270.559324 82.895017 
L 272.329468 87.740927 
L 274.099612 92.788749 
L 275.869756 98.038485 
L 277.639901 103.490133 
L 279.410045 109.143694 
L 281.180189 114.999168 
" style="fill:none;stroke:#55a868;stroke-linecap:round;stroke-width:1.75;"/>
   </g>
   <g id="line2d_37">
    <path clip-path="url(#pa7d1bb6f06)" d="M 176.741686 114.999168 
L 178.51183 116.437797 
L 180.281974 117.77547 
L 182.052119 119.012187 
L 183.822263 120.147947 
L 185.592407 121.18275 
L 187.362551 122.116598 
L 189.132695 122.949488 
L 190.902839 123.681423 
L 192.672983 124.3124 
L 194.443127 124.842422 
L 196.213271 125.271487 
L 197.983416 125.599595 
L 199.75356 125.826747 
L 201.523704 125.952943 
L 203.293848 125.978182 
L 205.063992 125.902464 
L 206.834136 125.725791 
L 208.60428 125.44816 
L 210.374424 125.069574 
L 212.144568 124.590031 
L 213.914713 124.009531 
L 215.684857 123.328075 
L 217.455001 122.545663 
L 219.225145 121.662294 
L 220.995289 120.677968 
L 222.765433 119.592686 
L 224.535577 118.406448 
L 226.305721 117.119253 
L 228.075865 115.731102 
L 229.84601 114.241995 
L 231.616154 112.651931 
L 233.386298 110.96091 
L 235.156442 109.168933 
L 236.926586 107.276 
L 238.69673 105.28211 
L 240.466874 103.187263 
L 242.237018 100.991461 
L 244.007162 98.694701 
L 245.777307 96.296986 
L 247.547451 93.798314 
L 249.317595 91.198685 
L 251.087739 88.4981 
L 252.857883 85.696559 
L 254.628027 82.794061 
L 256.398171 79.790606 
L 258.168315 76.686196 
L 259.938459 73.480828 
L 261.708604 70.174505 
L 263.478748 66.767224 
L 265.248892 63.258988 
L 267.019036 59.649795 
L 268.78918 55.939645 
L 270.559324 52.128539 
L 272.329468 48.216477 
L 274.099612 44.203458 
L 275.869756 40.089483 
L 277.639901 35.874551 
L 279.410045 31.558663 
L 281.180189 27.141818 
" style="fill:none;stroke:#c44e52;stroke-linecap:round;stroke-width:1.75;"/>
   </g>
   <g id="patch_8">
    <path d="M 171.519761 130.92 
L 171.519761 22.2 
" style="fill:none;"/>
   </g>
   <g id="patch_9">
    <path d="M 286.402114 130.92 
L 286.402114 22.2 
" style="fill:none;"/>
   </g>
   <g id="patch_10">
    <path d="M 171.519761 130.92 
L 286.402114 130.92 
" style="fill:none;"/>
   </g>
   <g id="patch_11">
    <path d="M 171.519761 22.2 
L 286.402114 22.2 
" style="fill:none;"/>
   </g>
   <g id="text_18">
    <!-- nodal basis, $p = 2$ -->
    <defs>
     <path d="M 19.1875 8.296875 
L 53.609375 8.296875 
L 53.609375 0 
L 7.328125 0 
L 7.328125 8.296875 
Q 12.9375 14.109375 22.625 23.890625 
Q 32.328125 33.6875 34.8125 36.53125 
Q 39.546875 41.84375 41.421875 45.53125 
Q 43.3125 49.21875 43.3125 52.78125 
Q 43.3125 58.59375 39.234375 62.25 
Q 35.15625 65.921875 28.609375 65.921875 
Q 23.96875 65.921875 18.8125 64.3125 
Q 13.671875 62.703125 7.8125 59.421875 
L 7.8125 69.390625 
Q 13.765625 71.78125 18.9375 73 
Q 24.125 74.21875 28.421875 74.21875 
Q 39.75 74.21875 46.484375 68.546875 
Q 53.21875 62.890625 53.21875 53.421875 
Q 53.21875 48.921875 51.53125 44.890625 
Q 49.859375 40.875 45.40625 35.40625 
Q 44.1875 33.984375 37.640625 27.21875 
Q 31.109375 20.453125 19.1875 8.296875 
z
" id="DejaVuSans-32"/>
    </defs>
    <g style="fill:#262626;" transform="translate(180.240938 16.2)scale(0.12 -0.12)">
     <use transform="translate(0 0.78125)" xlink:href="#ArialMT-6e"/>
     <use transform="translate(55.615234 0.78125)" xlink:href="#ArialMT-6f"/>
     <use transform="translate(111.230469 0.78125)" xlink:href="#ArialMT-64"/>
     <use transform="translate(166.845703 0.78125)" xlink:href="#ArialMT-61"/>
     <use transform="translate(222.460938 0.78125)" xlink:href="#ArialMT-6c"/>
     <use transform="translate(244.677734 0.78125)" xlink:href="#ArialMT-20"/>
     <use transform="translate(272.460938 0.78125)" xlink:href="#ArialMT-62"/>
     <use transform="translate(328.076172 0.78125)" xlink:href="#ArialMT-61"/>
     <use transform="translate(383.691406 0.78125)" xlink:href="#ArialMT-73"/>
     <use transform="translate(433.691406 0.78125)" xlink:href="#ArialMT-69"/>
     <use transform="translate(455.908203 0.78125)" xlink:href="#ArialMT-73"/>
     <use transform="translate(505.908203 0.78125)" xlink:href="#ArialMT-2c"/>
     <use transform="translate(533.691406 0.78125)" xlink:href="#ArialMT-20"/>
     <use transform="translate(561.474609 0.78125)" xlink:href="#DejaVuSans-Oblique-70"/>
     <use transform="translate(644.433594 0.78125)" xlink:href="#DejaVuSans-3d"/>
     <use transform="translate(747.705078 0.78125)" xlink:href="#DejaVuSans-32"/>
    </g>
   </g>
  </g>
  <g id="axes_3">
   <g id="patch_12">
    <path d="M 309.378585 130.92 
L 424.260938 130.92 
L 424.260938 22.2 
L 309.378585 22.2 
z
" style="fill:#eaeaf2;"/>
   </g>
   <g id="matplotlib.axis_5">
    <g id="xtick_7">
     <g id="line2d_38">
      <path clip-path="url(#p965d2abb04)" d="M 314.60051 130.92 
L 314.60051 22.2 
" style="fill:none;stroke:#ffffff;stroke-linecap:round;"/>
     </g>
     <g id="line2d_39"/>
     <g id="text_19">
      <!-- −1 -->
      <g style="fill:#262626;" transform="translate(308.899728 145.077813)scale(0.1 -0.1)">
       <use xlink:href="#ArialMT-2212"/>
       <use x="58.398438" xlink:href="#ArialMT-31"/>
      </g>
     </g>
    </g>
    <g id="xtick_8">
     <g id="line2d_40">
      <path clip-path="url(#p965d2abb04)" d="M 366.819761 130.92 
L 366.819761 22.2 
" style="fill:none;stroke:#ffffff;stroke-linecap:round;"/>
     </g>
     <g id="line2d_41"/>
     <g id="text_20">
      <!-- 0 -->
      <g style="fill:#262626;" transform="translate(364.039292 145.077813)scale(0.1 -0.1)">
       <use xlink:href="#ArialMT-30"/>
      </g>
     </g>
    </g>
    <g id="xtick_9">
     <g id="line2d_42">
      <path clip-path="url(#p965d2abb04)" d="M 419.039012 130.92 
L 419.039012 22.2 
" style="fill:none;stroke:#ffffff;stroke-linecap:round;"/>
     </g>
     <g id="line2d_43"/>
     <g id="text_21">
      <!-- 1 -->
      <g style="fill:#262626;" transform="translate(416.258544 145.077813)scale(0.1 -0.1)">
       <use xlink:href="#ArialMT-31"/>
      </g>
     </g>
    </g>
   </g>
   <g id="matplotlib.axis_6">
    <g id="ytick_11">
     <g id="line2d_44">
      <path clip-path="url(#p965d2abb04)" d="M 309.378585 103.235394 
L 424.260938 103.235394 
" style="fill:none;stroke:#ffffff;stroke-linecap:round;"/>
     </g>
     <g id="line2d_45"/>
     <g id="text_22">
      <!-- 0.0 -->
      <g style="fill:#262626;" transform="translate(288.478585 106.814301)scale(0.1 -0.1)">
       <use xlink:href="#ArialMT-30"/>
       <use x="55.615234" xlink:href="#ArialMT-2e"/>
       <use x="83.398438" xlink:href="#ArialMT-30"/>
      </g>
     </g>
    </g>
    <g id="ytick_12">
     <g id="line2d_46">
      <path clip-path="url(#p965d2abb04)" d="M 309.378585 67.194569 
L 424.260938 67.194569 
" style="fill:none;stroke:#ffffff;stroke-linecap:round;"/>
     </g>
     <g id="line2d_47"/>
     <g id="text_23">
      <!-- 0.5 -->
      <g style="fill:#262626;" transform="translate(288.478585 70.773476)scale(0.1 -0.1)">
       <use xlink:href="#ArialMT-30"/>
       <use x="55.615234" xlink:href="#ArialMT-2e"/>
       <use x="83.398438" xlink:href="#ArialMT-35"/>
      </g>
     </g>
    </g>
    <g id="ytick_13">
     <g id="line2d_48">
      <path clip-path="url(#p965d2abb04)" d="M 309.378585 31.153744 
L 424.260938 31.153744 
" style="fill:none;stroke:#ffffff;stroke-linecap:round;"/>
     </g>
     <g id="line2d_49"/>
     <g id="text_24">
      <!-- 1.0 -->
      <g style="fill:#262626;" transform="translate(288.478585 34.73265)scale(0.1 -0.1)">
       <use xlink:href="#ArialMT-31"/>
       <use x="55.615234" xlink:href="#ArialMT-2e"/>
       <use x="83.398438" xlink:href="#ArialMT-30"/>
      </g>
     </g>
    </g>
   </g>
   <g id="line2d_50">
    <path clip-path="url(#p965d2abb04)" d="M 314.60051 31.153744 
L 316.370654 37.688435 
L 318.140798 43.859873 
L 319.910942 49.677534 
L 321.681086 55.150895 
L 323.45123 60.289431 
L 325.221374 65.102619 
L 326.991518 69.599935 
L 328.761663 73.790855 
L 330.531807 77.684855 
L 332.301951 81.291412 
L 334.072095 84.620002 
L 335.842239 87.6801 
L 337.612383 90.481183 
L 339.382527 93.032727 
L 341.152671 95.344209 
L 342.922816 97.425104 
L 344.69296 99.284888 
L 346.463104 100.933038 
L 348.233248 102.37903 
L 350.003392 103.63234 
L 351.773536 104.702445 
L 353.54368 105.598819 
L 355.313824 106.33094 
L 357.083968 106.908284 
L 358.854113 107.340327 
L 360.624257 107.636545 
L 362.394401 107.806414 
L 364.164545 107.85941 
L 365.934689 107.80501 
L 367.704833 107.65269 
L 369.474977 107.411925 
L 371.245121 107.092192 
L 373.015265 106.702968 
L 374.78541 106.253727 
L 376.555554 105.753948 
L 378.325698 105.213104 
L 380.095842 104.640674 
L 381.865986 104.046133 
L 383.63613 103.438956 
L 385.406274 102.828621 
L 387.176418 102.224604 
L 388.946562 101.63638 
L 390.716707 101.073426 
L 392.486851 100.545217 
L 394.256995 100.061231 
L 396.027139 99.630943 
L 397.797283 99.26383 
L 399.567427 98.969367 
L 401.337571 98.757031 
L 403.107715 98.636297 
L 404.877859 98.616643 
L 406.648004 98.707544 
L 408.418148 98.918476 
L 410.188292 99.258916 
L 411.958436 99.73834 
L 413.72858 100.366223 
L 415.498724 101.152043 
L 417.268868 102.105274 
L 419.039012 103.235394 
" style="fill:none;stroke:#4c72b0;stroke-linecap:round;stroke-width:1.75;"/>
   </g>
   <g id="line2d_51">
    <path clip-path="url(#p965d2abb04)" d="M 314.60051 103.235394 
L 316.370654 92.701062 
L 318.140798 83.070123 
L 319.910942 74.31415 
L 321.681086 66.404714 
L 323.45123 59.313386 
L 325.221374 53.011739 
L 326.991518 47.471343 
L 328.761663 42.663771 
L 330.531807 38.560593 
L 332.301951 35.133381 
L 334.072095 32.353707 
L 335.842239 30.193142 
L 337.612383 28.623258 
L 339.382527 27.615626 
L 341.152671 27.141818 
L 342.922816 27.173405 
L 344.69296 27.681959 
L 346.463104 28.639052 
L 348.233248 30.016254 
L 350.003392 31.785137 
L 351.773536 33.917274 
L 353.54368 36.384234 
L 355.313824 39.157591 
L 357.083968 42.208915 
L 358.854113 45.509778 
L 360.624257 49.031751 
L 362.394401 52.746406 
L 364.164545 56.625315 
L 365.934689 60.640049 
L 367.704833 64.762179 
L 369.474977 68.963277 
L 371.245121 73.214915 
L 373.015265 77.488664 
L 374.78541 81.756095 
L 376.555554 85.988781 
L 378.325698 90.158292 
L 380.095842 94.2362 
L 381.865986 98.194077 
L 383.63613 102.003493 
L 385.406274 105.636022 
L 387.176418 109.063234 
L 388.946562 112.2567 
L 390.716707 115.187993 
L 392.486851 117.828683 
L 394.256995 120.150343 
L 396.027139 122.124543 
L 397.797283 123.722855 
L 399.567427 124.916852 
L 401.337571 125.678103 
L 403.107715 125.978182 
L 404.877859 125.788659 
L 406.648004 125.081105 
L 408.418148 123.827093 
L 410.188292 121.998194 
L 411.958436 119.565979 
L 413.72858 116.50202 
L 415.498724 112.777889 
L 417.268868 108.365156 
L 419.039012 103.235394 
" style="fill:none;stroke:#55a868;stroke-linecap:round;stroke-width:1.75;"/>
   </g>
   <g id="line2d_52">
    <path clip-path="url(#p965d2abb04)" d="M 314.60051 103.235394 
L 316.370654 108.365156 
L 318.140798 112.777889 
L 319.910942 116.50202 
L 321.681086 119.565979 
L 323.45123 121.998194 
L 325.221374 123.827093 
L 326.991518 125.081105 
L 328.761663 125.788659 
L 330.531807 125.978182 
L 332.301951 125.678103 
L 334.072095 124.916852 
L 335.842239 123.722855 
L 337.612383 122.124543 
L 339.382527 120.150343 
L 341.152671 117.828683 
L 342.922816 115.187993 
L 344.69296 112.2567 
L 346.463104 109.063234 
L 348.233248 105.636022 
L 350.003392 102.003493 
L 351.773536 98.194077 
L 353.54368 94.2362 
L 355.313824 90.158292 
L 357.083968 85.988781 
L 358.854113 81.756095 
L 360.624257 77.488664 
L 362.394401 73.214915 
L 364.164545 68.963277 
L 365.934689 64.762179 
L 367.704833 60.640049 
L 369.474977 56.625315 
L 371.245121 52.746406 
L 373.015265 49.031751 
L 374.78541 45.509778 
L 376.555554 42.208915 
L 378.325698 39.157591 
L 380.095842 36.384234 
L 381.865986 33.917274 
L 383.63613 31.785137 
L 385.406274 30.016254 
L 387.176418 28.639052 
L 388.946562 27.681959 
L 390.716707 27.173405 
L 392.486851 27.141818 
L 394.256995 27.615626 
L 396.027139 28.623258 
L 397.797283 30.193142 
L 399.567427 32.353707 
L 401.337571 35.133381 
L 403.107715 38.560593 
L 404.877859 42.663771 
L 406.648004 47.471343 
L 408.418148 53.011739 
L 410.188292 59.313386 
L 411.958436 66.404714 
L 413.72858 74.31415 
L 415.498724 83.070123 
L 417.268868 92.701062 
L 419.039012 103.235394 
" style="fill:none;stroke:#c44e52;stroke-linecap:round;stroke-width:1.75;"/>
   </g>
   <g id="line2d_53">
    <path clip-path="url(#p965d2abb04)" d="M 314.60051 103.235394 
L 316.370654 102.105274 
L 318.140798 101.152043 
L 319.910942 100.366223 
L 321.681086 99.73834 
L 323.45123 99.258916 
L 325.221374 98.918476 
L 326.991518 98.707544 
L 328.761663 98.616643 
L 330.531807 98.636297 
L 332.301951 98.757031 
L 334.072095 98.969367 
L 335.842239 99.26383 
L 337.612383 99.630943 
L 339.382527 100.061231 
L 341.152671 100.545217 
L 342.922816 101.073426 
L 344.69296 101.63638 
L 346.463104 102.224604 
L 348.233248 102.828621 
L 350.003392 103.438956 
L 351.773536 104.046133 
L 353.54368 104.640674 
L 355.313824 105.213104 
L 357.083968 105.753948 
L 358.854113 106.253727 
L 360.624257 106.702968 
L 362.394401 107.092192 
L 364.164545 107.411925 
L 365.934689 107.65269 
L 367.704833 107.80501 
L 369.474977 107.85941 
L 371.245121 107.806414 
L 373.015265 107.636545 
L 374.78541 107.340327 
L 376.555554 106.908284 
L 378.325698 106.33094 
L 380.095842 105.598819 
L 381.865986 104.702445 
L 383.63613 103.63234 
L 385.406274 102.37903 
L 387.176418 100.933038 
L 388.946562 99.284888 
L 390.716707 97.425104 
L 392.486851 95.344209 
L 394.256995 93.032727 
L 396.027139 90.481183 
L 397.797283 87.6801 
L 399.567427 84.620002 
L 401.337571 81.291412 
L 403.107715 77.684855 
L 404.877859 73.790855 
L 406.648004 69.599935 
L 408.418148 65.102619 
L 410.188292 60.289431 
L 411.958436 55.150895 
L 413.72858 49.677534 
L 415.498724 43.859873 
L 417.268868 37.688435 
L 419.039012 31.153744 
" style="fill:none;stroke:#8172b2;stroke-linecap:round;stroke-width:1.75;"/>
   </g>
   <g id="patch_13">
    <path d="M 309.378585 130.92 
L 309.378585 22.2 
" style="fill:none;"/>
   </g>
   <g id="patch_14">
    <path d="M 424.260938 130.92 
L 424.260938 22.2 
" style="fill:none;"/>
   </g>
   <g id="patch_15">
    <path d="M 309.378585 130.92 
L 424.260938 130.92 
" style="fill:none;"/>
   </g>
   <g id="patch_16">
    <path d="M 309.378585 22.2 
L 424.260938 22.2 
" style="fill:none;"/>
   </g>
   <g id="text_25">
    <!-- nodal basis, $p = 3$ -->
    <defs>
     <path d="M 40.578125 39.3125 
Q 47.65625 37.796875 51.625 33 
Q 55.609375 28.21875 55.609375 21.1875 
Q 55.609375 10.40625 48.1875 4.484375 
Q 40.765625 -1.421875 27.09375 -1.421875 
Q 22.515625 -1.421875 17.65625 -0.515625 
Q 12.796875 0.390625 7.625 2.203125 
L 7.625 11.71875 
Q 11.71875 9.328125 16.59375 8.109375 
Q 21.484375 6.890625 26.8125 6.890625 
Q 36.078125 6.890625 40.9375 10.546875 
Q 45.796875 14.203125 45.796875 21.1875 
Q 45.796875 27.640625 41.28125 31.265625 
Q 36.765625 34.90625 28.71875 34.90625 
L 20.21875 34.90625 
L 20.21875 43.015625 
L 29.109375 43.015625 
Q 36.375 43.015625 40.234375 45.921875 
Q 44.09375 48.828125 44.09375 54.296875 
Q 44.09375 59.90625 40.109375 62.90625 
Q 36.140625 65.921875 28.71875 65.921875 
Q 24.65625 65.921875 20.015625 65.03125 
Q 15.375 64.15625 9.8125 62.3125 
L 9.8125 71.09375 
Q 15.4375 72.65625 20.34375 73.4375 
Q 25.25 74.21875 29.59375 74.21875 
Q 40.828125 74.21875 47.359375 69.109375 
Q 53.90625 64.015625 53.90625 55.328125 
Q 53.90625 49.265625 50.4375 45.09375 
Q 46.96875 40.921875 40.578125 39.3125 
z
" id="DejaVuSans-33"/>
    </defs>
    <g style="fill:#262626;" transform="translate(318.099761 16.2)scale(0.12 -0.12)">
     <use transform="translate(0 0.78125)" xlink:href="#ArialMT-6e"/>
     <use transform="translate(55.615234 0.78125)" xlink:href="#ArialMT-6f"/>
     <use transform="translate(111.230469 0.78125)" xlink:href="#ArialMT-64"/>
     <use transform="translate(166.845703 0.78125)" xlink:href="#ArialMT-61"/>
     <use transform="translate(222.460938 0.78125)" xlink:href="#ArialMT-6c"/>
     <use transform="translate(244.677734 0.78125)" xlink:href="#ArialMT-20"/>
     <use transform="translate(272.460938 0.78125)" xlink:href="#ArialMT-62"/>
     <use transform="translate(328.076172 0.78125)" xlink:href="#ArialMT-61"/>
     <use transform="translate(383.691406 0.78125)" xlink:href="#ArialMT-73"/>
     <use transform="translate(433.691406 0.78125)" xlink:href="#ArialMT-69"/>
     <use transform="translate(455.908203 0.78125)" xlink:href="#ArialMT-73"/>
     <use transform="translate(505.908203 0.78125)" xlink:href="#ArialMT-2c"/>
     <use transform="translate(533.691406 0.78125)" xlink:href="#ArialMT-20"/>
     <use transform="translate(561.474609 0.78125)" xlink:href="#DejaVuSans-Oblique-70"/>
     <use transform="translate(644.433594 0.78125)" xlink:href="#DejaVuSans-3d"/>
     <use transform="translate(747.705078 0.78125)" xlink:href="#DejaVuSans-33"/>
    </g>
   </g>
  </g>
 </g>
 <defs>
  <clipPath id="pe2a4ad1866">
   <rect height="108.72" width="114.882353" x="33.660938" y="22.2"/>
  </clipPath>
  <clipPath id="pa7d1bb6f06">
   <rect height="108.72" width="114.882353" x="171.519761" y="22.2"/>
  </clipPath>
  <clipPath id="p965d2abb04">
   <rect height="108.72" width="114.882353" x="309.378585" y="22.2"/>
  </clipPath>
 </defs>
</svg>
