<?xml version="1.0" encoding="utf-8" standalone="no"?>
<!DOCTYPE svg PUBLIC "-//W3C//DTD SVG 1.1//EN"
  "http://www.w3.org/Graphics/SVG/1.1/DTD/svg11.dtd">
<!-- Created with matplotlib (http://matplotlib.org/) -->
<svg height="153pt" version="1.1" viewBox="0 0 237 153" width="237pt" xmlns="http://www.w3.org/2000/svg" xmlns:xlink="http://www.w3.org/1999/xlink">
 <defs>
  <style type="text/css">
*{stroke-linecap:butt;stroke-linejoin:round;}
  </style>
 </defs>
 <g id="figure_1">
  <g id="patch_1">
   <path d="M 0 153.325156 
L 237.6 153.325156 
L 237.6 0 
L 0 0 
z
" style="fill:none;"/>
  </g>
  <g id="axes_1">
   <g id="patch_2">
    <path d="M 7.2 115.92 
L 230.4 115.92 
L 230.4 7.2 
L 7.2 7.2 
z
" style="fill:#eaeaf2;"/>
   </g>
   <g id="matplotlib.axis_1">
    <g id="xtick_1">
     <g id="line2d_1">
      <path clip-path="url(#p312ccfdd49)" d="M 20.831198 115.92 
L 20.831198 7.2 
" style="fill:none;stroke:#ffffff;stroke-linecap:round;"/>
     </g>
     <g id="line2d_2"/>
     <g id="text_1">
      <!-- 0.0 -->
      <defs>
       <path d="M 4.15625 35.296875 
Q 4.15625 48 6.765625 55.734375 
Q 9.375 63.484375 14.515625 67.671875 
Q 19.671875 71.875 27.484375 71.875 
Q 33.25 71.875 37.59375 69.546875 
Q 41.9375 67.234375 44.765625 62.859375 
Q 47.609375 58.5 49.21875 52.21875 
Q 50.828125 45.953125 50.828125 35.296875 
Q 50.828125 22.703125 48.234375 14.96875 
Q 45.65625 7.234375 40.5 3 
Q 35.359375 -1.21875 27.484375 -1.21875 
Q 17.140625 -1.21875 11.234375 6.203125 
Q 4.15625 15.140625 4.15625 35.296875 
z
M 13.1875 35.296875 
Q 13.1875 17.671875 17.3125 11.828125 
Q 21.4375 6 27.484375 6 
Q 33.546875 6 37.671875 11.859375 
Q 41.796875 17.71875 41.796875 35.296875 
Q 41.796875 52.984375 37.671875 58.78125 
Q 33.546875 64.59375 27.390625 64.59375 
Q 21.34375 64.59375 17.71875 59.46875 
Q 13.1875 52.9375 13.1875 35.296875 
z
" id="ArialMT-30"/>
       <path d="M 9.078125 0 
L 9.078125 10.015625 
L 19.09375 10.015625 
L 19.09375 0 
z
" id="ArialMT-2e"/>
      </defs>
      <g style="fill:#262626;" transform="translate(13.881198 130.077812)scale(0.1 -0.1)">
       <use xlink:href="#ArialMT-30"/>
       <use x="55.615234" xlink:href="#ArialMT-2e"/>
       <use x="83.398438" xlink:href="#ArialMT-30"/>
      </g>
     </g>
    </g>
    <g id="xtick_2">
     <g id="line2d_3">
      <path clip-path="url(#p312ccfdd49)" d="M 60.018719 115.92 
L 60.018719 7.2 
" style="fill:none;stroke:#ffffff;stroke-linecap:round;"/>
     </g>
     <g id="line2d_4"/>
     <g id="text_2">
      <!-- 0.2 -->
      <defs>
       <path d="M 50.34375 8.453125 
L 50.34375 0 
L 3.03125 0 
Q 2.9375 3.171875 4.046875 6.109375 
Q 5.859375 10.9375 9.828125 15.625 
Q 13.8125 20.3125 21.34375 26.46875 
Q 33.015625 36.03125 37.109375 41.625 
Q 41.21875 47.21875 41.21875 52.203125 
Q 41.21875 57.421875 37.46875 61 
Q 33.734375 64.59375 27.734375 64.59375 
Q 21.390625 64.59375 17.578125 60.78125 
Q 13.765625 56.984375 13.71875 50.25 
L 4.6875 51.171875 
Q 5.609375 61.28125 11.65625 66.578125 
Q 17.71875 71.875 27.9375 71.875 
Q 38.234375 71.875 44.234375 66.15625 
Q 50.25 60.453125 50.25 52 
Q 50.25 47.703125 48.484375 43.546875 
Q 46.734375 39.40625 42.65625 34.8125 
Q 38.578125 30.21875 29.109375 22.21875 
Q 21.1875 15.578125 18.9375 13.203125 
Q 16.703125 10.84375 15.234375 8.453125 
z
" id="ArialMT-32"/>
      </defs>
      <g style="fill:#262626;" transform="translate(53.068719 130.077812)scale(0.1 -0.1)">
       <use xlink:href="#ArialMT-30"/>
       <use x="55.615234" xlink:href="#ArialMT-2e"/>
       <use x="83.398438" xlink:href="#ArialMT-32"/>
      </g>
     </g>
    </g>
    <g id="xtick_3">
     <g id="line2d_5">
      <path clip-path="url(#p312ccfdd49)" d="M 99.20624 115.92 
L 99.20624 7.2 
" style="fill:none;stroke:#ffffff;stroke-linecap:round;"/>
     </g>
     <g id="line2d_6"/>
     <g id="text_3">
      <!-- 0.4 -->
      <defs>
       <path d="M 32.328125 0 
L 32.328125 17.140625 
L 1.265625 17.140625 
L 1.265625 25.203125 
L 33.9375 71.578125 
L 41.109375 71.578125 
L 41.109375 25.203125 
L 50.78125 25.203125 
L 50.78125 17.140625 
L 41.109375 17.140625 
L 41.109375 0 
z
M 32.328125 25.203125 
L 32.328125 57.46875 
L 9.90625 25.203125 
z
" id="ArialMT-34"/>
      </defs>
      <g style="fill:#262626;" transform="translate(92.25624 130.077812)scale(0.1 -0.1)">
       <use xlink:href="#ArialMT-30"/>
       <use x="55.615234" xlink:href="#ArialMT-2e"/>
       <use x="83.398438" xlink:href="#ArialMT-34"/>
      </g>
     </g>
    </g>
    <g id="xtick_4">
     <g id="line2d_7">
      <path clip-path="url(#p312ccfdd49)" d="M 138.39376 115.92 
L 138.39376 7.2 
" style="fill:none;stroke:#ffffff;stroke-linecap:round;"/>
     </g>
     <g id="line2d_8"/>
     <g id="text_4">
      <!-- 0.6 -->
      <defs>
       <path d="M 49.75 54.046875 
L 41.015625 53.375 
Q 39.84375 58.546875 37.703125 60.890625 
Q 34.125 64.65625 28.90625 64.65625 
Q 24.703125 64.65625 21.53125 62.3125 
Q 17.390625 59.28125 14.984375 53.46875 
Q 12.59375 47.65625 12.5 36.921875 
Q 15.671875 41.75 20.265625 44.09375 
Q 24.859375 46.4375 29.890625 46.4375 
Q 38.671875 46.4375 44.84375 39.96875 
Q 51.03125 33.5 51.03125 23.25 
Q 51.03125 16.5 48.125 10.71875 
Q 45.21875 4.9375 40.140625 1.859375 
Q 35.0625 -1.21875 28.609375 -1.21875 
Q 17.625 -1.21875 10.6875 6.859375 
Q 3.765625 14.9375 3.765625 33.5 
Q 3.765625 54.25 11.421875 63.671875 
Q 18.109375 71.875 29.4375 71.875 
Q 37.890625 71.875 43.28125 67.140625 
Q 48.6875 62.40625 49.75 54.046875 
z
M 13.875 23.1875 
Q 13.875 18.65625 15.796875 14.5 
Q 17.71875 10.359375 21.1875 8.171875 
Q 24.65625 6 28.46875 6 
Q 34.03125 6 38.03125 10.484375 
Q 42.046875 14.984375 42.046875 22.703125 
Q 42.046875 30.125 38.078125 34.390625 
Q 34.125 38.671875 28.125 38.671875 
Q 22.171875 38.671875 18.015625 34.390625 
Q 13.875 30.125 13.875 23.1875 
z
" id="ArialMT-36"/>
      </defs>
      <g style="fill:#262626;" transform="translate(131.44376 130.077812)scale(0.1 -0.1)">
       <use xlink:href="#ArialMT-30"/>
       <use x="55.615234" xlink:href="#ArialMT-2e"/>
       <use x="83.398438" xlink:href="#ArialMT-36"/>
      </g>
     </g>
    </g>
    <g id="xtick_5">
     <g id="line2d_9">
      <path clip-path="url(#p312ccfdd49)" d="M 177.581281 115.92 
L 177.581281 7.2 
" style="fill:none;stroke:#ffffff;stroke-linecap:round;"/>
     </g>
     <g id="line2d_10"/>
     <g id="text_5">
      <!-- 0.8 -->
      <defs>
       <path d="M 17.671875 38.8125 
Q 12.203125 40.828125 9.5625 44.53125 
Q 6.9375 48.25 6.9375 53.421875 
Q 6.9375 61.234375 12.546875 66.546875 
Q 18.171875 71.875 27.484375 71.875 
Q 36.859375 71.875 42.578125 66.421875 
Q 48.296875 60.984375 48.296875 53.171875 
Q 48.296875 48.1875 45.671875 44.5 
Q 43.0625 40.828125 37.75 38.8125 
Q 44.34375 36.671875 47.78125 31.875 
Q 51.21875 27.09375 51.21875 20.453125 
Q 51.21875 11.28125 44.71875 5.03125 
Q 38.234375 -1.21875 27.640625 -1.21875 
Q 17.046875 -1.21875 10.546875 5.046875 
Q 4.046875 11.328125 4.046875 20.703125 
Q 4.046875 27.6875 7.59375 32.390625 
Q 11.140625 37.109375 17.671875 38.8125 
z
M 15.921875 53.71875 
Q 15.921875 48.640625 19.1875 45.40625 
Q 22.46875 42.1875 27.6875 42.1875 
Q 32.765625 42.1875 36.015625 45.375 
Q 39.265625 48.578125 39.265625 53.21875 
Q 39.265625 58.0625 35.90625 61.359375 
Q 32.5625 64.65625 27.59375 64.65625 
Q 22.5625 64.65625 19.234375 61.421875 
Q 15.921875 58.203125 15.921875 53.71875 
z
M 13.09375 20.65625 
Q 13.09375 16.890625 14.875 13.375 
Q 16.65625 9.859375 20.171875 7.921875 
Q 23.6875 6 27.734375 6 
Q 34.03125 6 38.125 10.046875 
Q 42.234375 14.109375 42.234375 20.359375 
Q 42.234375 26.703125 38.015625 30.859375 
Q 33.796875 35.015625 27.4375 35.015625 
Q 21.234375 35.015625 17.15625 30.90625 
Q 13.09375 26.8125 13.09375 20.65625 
z
" id="ArialMT-38"/>
      </defs>
      <g style="fill:#262626;" transform="translate(170.631281 130.077812)scale(0.1 -0.1)">
       <use xlink:href="#ArialMT-30"/>
       <use x="55.615234" xlink:href="#ArialMT-2e"/>
       <use x="83.398438" xlink:href="#ArialMT-38"/>
      </g>
     </g>
    </g>
    <g id="xtick_6">
     <g id="line2d_11">
      <path clip-path="url(#p312ccfdd49)" d="M 216.768802 115.92 
L 216.768802 7.2 
" style="fill:none;stroke:#ffffff;stroke-linecap:round;"/>
     </g>
     <g id="line2d_12"/>
     <g id="text_6">
      <!-- 1.0 -->
      <defs>
       <path d="M 37.25 0 
L 28.46875 0 
L 28.46875 56 
Q 25.296875 52.984375 20.140625 49.953125 
Q 14.984375 46.921875 10.890625 45.40625 
L 10.890625 53.90625 
Q 18.265625 57.375 23.78125 62.296875 
Q 29.296875 67.234375 31.59375 71.875 
L 37.25 71.875 
z
" id="ArialMT-31"/>
      </defs>
      <g style="fill:#262626;" transform="translate(209.818802 130.077812)scale(0.1 -0.1)">
       <use xlink:href="#ArialMT-31"/>
       <use x="55.615234" xlink:href="#ArialMT-2e"/>
       <use x="83.398438" xlink:href="#ArialMT-30"/>
      </g>
     </g>
    </g>
    <g id="text_7">
     <!-- $x$ -->
     <defs>
      <path d="M 60.015625 54.6875 
L 34.90625 27.875 
L 50.296875 0 
L 39.984375 0 
L 28.421875 21.6875 
L 8.296875 0 
L -2.59375 0 
L 24.3125 28.8125 
L 10.015625 54.6875 
L 20.3125 54.6875 
L 30.8125 34.90625 
L 49.125 54.6875 
z
" id="DejaVuSans-Oblique-78"/>
     </defs>
     <g style="fill:#262626;" transform="translate(115.5 143.938906)scale(0.11 -0.11)">
      <use transform="translate(0 0.3125)" xlink:href="#DejaVuSans-Oblique-78"/>
     </g>
    </g>
   </g>
   <g id="matplotlib.axis_2"/>
   <g id="PathCollection_1">
    <defs>
     <path d="M 0 3.5 
C 0.928211 3.5 1.81853 3.131218 2.474874 2.474874 
C 3.131218 1.81853 3.5 0.928211 3.5 0 
C 3.5 -0.928211 3.131218 -1.81853 2.474874 -2.474874 
C 1.81853 -3.131218 0.928211 -3.5 0 -3.5 
C -0.928211 -3.5 -1.81853 -3.131218 -2.474874 -2.474874 
C -3.131218 -1.81853 -3.5 -0.928211 -3.5 0 
C -3.5 0.928211 -3.131218 1.81853 -2.474874 2.474874 
C -1.81853 3.131218 -0.928211 3.5 0 3.5 
z
" id="md90c1a4138" style="stroke:#4c72b0;stroke-width:0.3;"/>
    </defs>
    <g clip-path="url(#p312ccfdd49)">
     <use style="fill:#4c72b0;stroke:#4c72b0;stroke-width:0.3;" x="20.831198" xlink:href="#md90c1a4138" y="15.217605"/>
     <use style="fill:#4c72b0;stroke:#4c72b0;stroke-width:0.3;" x="31.143704" xlink:href="#md90c1a4138" y="15.217605"/>
     <use style="fill:#4c72b0;stroke:#4c72b0;stroke-width:0.3;" x="41.456209" xlink:href="#md90c1a4138" y="15.217605"/>
     <use style="fill:#4c72b0;stroke:#4c72b0;stroke-width:0.3;" x="51.768715" xlink:href="#md90c1a4138" y="15.217605"/>
     <use style="fill:#4c72b0;stroke:#4c72b0;stroke-width:0.3;" x="62.08122" xlink:href="#md90c1a4138" y="15.217605"/>
     <use style="fill:#4c72b0;stroke:#4c72b0;stroke-width:0.3;" x="72.393726" xlink:href="#md90c1a4138" y="15.217605"/>
     <use style="fill:#4c72b0;stroke:#4c72b0;stroke-width:0.3;" x="82.706231" xlink:href="#md90c1a4138" y="15.217605"/>
     <use style="fill:#4c72b0;stroke:#4c72b0;stroke-width:0.3;" x="93.018736" xlink:href="#md90c1a4138" y="15.217605"/>
     <use style="fill:#4c72b0;stroke:#4c72b0;stroke-width:0.3;" x="103.331242" xlink:href="#md90c1a4138" y="15.217605"/>
     <use style="fill:#4c72b0;stroke:#4c72b0;stroke-width:0.3;" x="113.643747" xlink:href="#md90c1a4138" y="15.217605"/>
     <use style="fill:#4c72b0;stroke:#4c72b0;stroke-width:0.3;" x="123.956253" xlink:href="#md90c1a4138" y="15.217605"/>
     <use style="fill:#4c72b0;stroke:#4c72b0;stroke-width:0.3;" x="134.268758" xlink:href="#md90c1a4138" y="15.217605"/>
     <use style="fill:#4c72b0;stroke:#4c72b0;stroke-width:0.3;" x="144.581264" xlink:href="#md90c1a4138" y="15.217605"/>
     <use style="fill:#4c72b0;stroke:#4c72b0;stroke-width:0.3;" x="154.893769" xlink:href="#md90c1a4138" y="15.217605"/>
     <use style="fill:#4c72b0;stroke:#4c72b0;stroke-width:0.3;" x="165.206274" xlink:href="#md90c1a4138" y="15.217605"/>
     <use style="fill:#4c72b0;stroke:#4c72b0;stroke-width:0.3;" x="175.51878" xlink:href="#md90c1a4138" y="15.217605"/>
     <use style="fill:#4c72b0;stroke:#4c72b0;stroke-width:0.3;" x="185.831285" xlink:href="#md90c1a4138" y="15.217605"/>
     <use style="fill:#4c72b0;stroke:#4c72b0;stroke-width:0.3;" x="196.143791" xlink:href="#md90c1a4138" y="15.217605"/>
     <use style="fill:#4c72b0;stroke:#4c72b0;stroke-width:0.3;" x="206.456296" xlink:href="#md90c1a4138" y="15.217605"/>
     <use style="fill:#4c72b0;stroke:#4c72b0;stroke-width:0.3;" x="216.768802" xlink:href="#md90c1a4138" y="15.217605"/>
    </g>
   </g>
   <g id="PathCollection_2">
    <defs>
     <path d="M 0 3.5 
C 0.928211 3.5 1.81853 3.131218 2.474874 2.474874 
C 3.131218 1.81853 3.5 0.928211 3.5 0 
C 3.5 -0.928211 3.131218 -1.81853 2.474874 -2.474874 
C 1.81853 -3.131218 0.928211 -3.5 0 -3.5 
C -0.928211 -3.5 -1.81853 -3.131218 -2.474874 -2.474874 
C -3.131218 -1.81853 -3.5 -0.928211 -3.5 0 
C -3.5 0.928211 -3.131218 1.81853 -2.474874 2.474874 
C -1.81853 3.131218 -0.928211 3.5 0 3.5 
z
" id="m842e4786f7" style="stroke:#55a868;stroke-width:0.3;"/>
    </defs>
    <g clip-path="url(#p312ccfdd49)">
     <use style="fill:#55a868;stroke:#55a868;stroke-width:0.3;" x="20.831198" xlink:href="#m842e4786f7" y="110.760342"/>
     <use style="fill:#55a868;stroke:#55a868;stroke-width:0.3;" x="24.235402" xlink:href="#m842e4786f7" y="110.760342"/>
     <use style="fill:#55a868;stroke:#55a868;stroke-width:0.3;" x="28.017483" xlink:href="#m842e4786f7" y="110.760342"/>
     <use style="fill:#55a868;stroke:#55a868;stroke-width:0.3;" x="32.219386" xlink:href="#m842e4786f7" y="110.760342"/>
     <use style="fill:#55a868;stroke:#55a868;stroke-width:0.3;" x="36.887712" xlink:href="#m842e4786f7" y="110.760342"/>
     <use style="fill:#55a868;stroke:#55a868;stroke-width:0.3;" x="42.074236" xlink:href="#m842e4786f7" y="110.760342"/>
     <use style="fill:#55a868;stroke:#55a868;stroke-width:0.3;" x="47.83648" xlink:href="#m842e4786f7" y="110.760342"/>
     <use style="fill:#55a868;stroke:#55a868;stroke-width:0.3;" x="54.238349" xlink:href="#m842e4786f7" y="110.760342"/>
     <use style="fill:#55a868;stroke:#55a868;stroke-width:0.3;" x="61.350845" xlink:href="#m842e4786f7" y="110.760342"/>
     <use style="fill:#55a868;stroke:#55a868;stroke-width:0.3;" x="69.252849" xlink:href="#m842e4786f7" y="110.760342"/>
     <use style="fill:#55a868;stroke:#55a868;stroke-width:0.3;" x="78.031999" xlink:href="#m842e4786f7" y="110.760342"/>
     <use style="fill:#55a868;stroke:#55a868;stroke-width:0.3;" x="87.78566" xlink:href="#m842e4786f7" y="110.760342"/>
     <use style="fill:#55a868;stroke:#55a868;stroke-width:0.3;" x="98.622006" xlink:href="#m842e4786f7" y="110.760342"/>
     <use style="fill:#55a868;stroke:#55a868;stroke-width:0.3;" x="110.661219" xlink:href="#m842e4786f7" y="110.760342"/>
     <use style="fill:#55a868;stroke:#55a868;stroke-width:0.3;" x="124.036819" xlink:href="#m842e4786f7" y="110.760342"/>
     <use style="fill:#55a868;stroke:#55a868;stroke-width:0.3;" x="138.897151" xlink:href="#m842e4786f7" y="110.760342"/>
     <use style="fill:#55a868;stroke:#55a868;stroke-width:0.3;" x="155.407023" xlink:href="#m842e4786f7" y="110.760342"/>
     <use style="fill:#55a868;stroke:#55a868;stroke-width:0.3;" x="173.749539" xlink:href="#m842e4786f7" y="110.760342"/>
     <use style="fill:#55a868;stroke:#55a868;stroke-width:0.3;" x="194.128129" xlink:href="#m842e4786f7" y="110.760342"/>
     <use style="fill:#55a868;stroke:#55a868;stroke-width:0.3;" x="216.768802" xlink:href="#m842e4786f7" y="110.760342"/>
    </g>
   </g>
   <g id="patch_3">
    <path d="M 7.2 115.92 
L 7.2 7.2 
" style="fill:none;"/>
   </g>
   <g id="patch_4">
    <path d="M 230.4 115.92 
L 230.4 7.2 
" style="fill:none;"/>
   </g>
   <g id="patch_5">
    <path d="M 7.2 115.92 
L 230.4 115.92 
" style="fill:none;"/>
   </g>
   <g id="patch_6">
    <path d="M 7.2 7.2 
L 230.4 7.2 
" style="fill:none;"/>
   </g>
   <g id="legend_1">
    <g id="PathCollection_3">
     <g>
      <use style="fill:#4c72b0;stroke:#4c72b0;stroke-width:0.3;" x="152.8" xlink:href="#md90c1a4138" y="54.4475"/>
     </g>
    </g>
    <g id="text_8">
     <!-- fixed $\Delta x$ -->
     <defs>
      <path d="M 8.6875 0 
L 8.6875 45.015625 
L 0.921875 45.015625 
L 0.921875 51.859375 
L 8.6875 51.859375 
L 8.6875 57.375 
Q 8.6875 62.59375 9.625 65.140625 
Q 10.890625 68.5625 14.078125 70.671875 
Q 17.28125 72.796875 23.046875 72.796875 
Q 26.765625 72.796875 31.25 71.921875 
L 29.9375 64.265625 
Q 27.203125 64.75 24.75 64.75 
Q 20.75 64.75 19.09375 63.03125 
Q 17.4375 61.328125 17.4375 56.640625 
L 17.4375 51.859375 
L 27.546875 51.859375 
L 27.546875 45.015625 
L 17.4375 45.015625 
L 17.4375 0 
z
" id="ArialMT-66"/>
      <path d="M 6.640625 61.46875 
L 6.640625 71.578125 
L 15.4375 71.578125 
L 15.4375 61.46875 
z
M 6.640625 0 
L 6.640625 51.859375 
L 15.4375 51.859375 
L 15.4375 0 
z
" id="ArialMT-69"/>
      <path d="M 0.734375 0 
L 19.671875 26.953125 
L 2.15625 51.859375 
L 13.140625 51.859375 
L 21.09375 39.703125 
Q 23.34375 36.234375 24.703125 33.890625 
Q 26.859375 37.109375 28.65625 39.59375 
L 37.40625 51.859375 
L 47.90625 51.859375 
L 29.984375 27.4375 
L 49.265625 0 
L 38.484375 0 
L 27.828125 16.109375 
L 25 20.453125 
L 11.375 0 
z
" id="ArialMT-78"/>
      <path d="M 42.09375 16.703125 
L 51.171875 15.578125 
Q 49.03125 7.625 43.21875 3.21875 
Q 37.40625 -1.171875 28.375 -1.171875 
Q 17 -1.171875 10.328125 5.828125 
Q 3.65625 12.84375 3.65625 25.484375 
Q 3.65625 38.578125 10.390625 45.796875 
Q 17.140625 53.03125 27.875 53.03125 
Q 38.28125 53.03125 44.875 45.953125 
Q 51.46875 38.875 51.46875 26.03125 
Q 51.46875 25.25 51.421875 23.6875 
L 12.75 23.6875 
Q 13.234375 15.140625 17.578125 10.59375 
Q 21.921875 6.0625 28.421875 6.0625 
Q 33.25 6.0625 36.671875 8.59375 
Q 40.09375 11.140625 42.09375 16.703125 
z
M 13.234375 30.90625 
L 42.1875 30.90625 
Q 41.609375 37.453125 38.875 40.71875 
Q 34.671875 45.796875 27.984375 45.796875 
Q 21.921875 45.796875 17.796875 41.75 
Q 13.671875 37.703125 13.234375 30.90625 
z
" id="ArialMT-65"/>
      <path d="M 40.234375 0 
L 40.234375 6.546875 
Q 35.296875 -1.171875 25.734375 -1.171875 
Q 19.53125 -1.171875 14.328125 2.25 
Q 9.125 5.671875 6.265625 11.796875 
Q 3.421875 17.921875 3.421875 25.875 
Q 3.421875 33.640625 6 39.96875 
Q 8.59375 46.296875 13.765625 49.65625 
Q 18.953125 53.03125 25.34375 53.03125 
Q 30.03125 53.03125 33.6875 51.046875 
Q 37.359375 49.078125 39.65625 45.90625 
L 39.65625 71.578125 
L 48.390625 71.578125 
L 48.390625 0 
z
M 12.453125 25.875 
Q 12.453125 15.921875 16.640625 10.984375 
Q 20.84375 6.0625 26.5625 6.0625 
Q 32.328125 6.0625 36.34375 10.765625 
Q 40.375 15.484375 40.375 25.140625 
Q 40.375 35.796875 36.265625 40.765625 
Q 32.171875 45.75 26.171875 45.75 
Q 20.3125 45.75 16.375 40.96875 
Q 12.453125 36.1875 12.453125 25.875 
z
" id="ArialMT-64"/>
      <path id="ArialMT-20"/>
      <path d="M 34.1875 63.1875 
L 14.15625 8.203125 
L 54.25 8.203125 
z
M 0.78125 0 
L 28.609375 72.90625 
L 39.796875 72.90625 
L 67.578125 0 
z
" id="DejaVuSans-394"/>
     </defs>
     <g style="fill:#262626;" transform="translate(170.8 57.0725)scale(0.1 -0.1)">
      <use transform="translate(0 0.09375)" xlink:href="#ArialMT-66"/>
      <use transform="translate(27.783203 0.09375)" xlink:href="#ArialMT-69"/>
      <use transform="translate(50 0.09375)" xlink:href="#ArialMT-78"/>
      <use transform="translate(100 0.09375)" xlink:href="#ArialMT-65"/>
      <use transform="translate(155.615234 0.09375)" xlink:href="#ArialMT-64"/>
      <use transform="translate(211.230469 0.09375)" xlink:href="#ArialMT-20"/>
      <use transform="translate(239.013672 0.09375)" xlink:href="#DejaVuSans-394"/>
      <use transform="translate(307.421875 0.09375)" xlink:href="#DejaVuSans-Oblique-78"/>
     </g>
    </g>
    <g id="PathCollection_4">
     <g>
      <use style="fill:#55a868;stroke:#55a868;stroke-width:0.3;" x="152.8" xlink:href="#m842e4786f7" y="68.592812"/>
     </g>
    </g>
    <g id="text_9">
     <!-- variable $\Delta x$ -->
     <defs>
      <path d="M 21 0 
L 1.265625 51.859375 
L 10.546875 51.859375 
L 21.6875 20.796875 
Q 23.484375 15.765625 25 10.359375 
Q 26.171875 14.453125 28.265625 20.21875 
L 39.796875 51.859375 
L 48.828125 51.859375 
L 29.203125 0 
z
" id="ArialMT-76"/>
      <path d="M 40.4375 6.390625 
Q 35.546875 2.25 31.03125 0.53125 
Q 26.515625 -1.171875 21.34375 -1.171875 
Q 12.796875 -1.171875 8.203125 3 
Q 3.609375 7.171875 3.609375 13.671875 
Q 3.609375 17.484375 5.34375 20.625 
Q 7.078125 23.78125 9.890625 25.6875 
Q 12.703125 27.59375 16.21875 28.5625 
Q 18.796875 29.25 24.03125 29.890625 
Q 34.671875 31.15625 39.703125 32.90625 
Q 39.75 34.71875 39.75 35.203125 
Q 39.75 40.578125 37.25 42.78125 
Q 33.890625 45.75 27.25 45.75 
Q 21.046875 45.75 18.09375 43.578125 
Q 15.140625 41.40625 13.71875 35.890625 
L 5.125 37.0625 
Q 6.296875 42.578125 8.984375 45.96875 
Q 11.671875 49.359375 16.75 51.1875 
Q 21.828125 53.03125 28.515625 53.03125 
Q 35.15625 53.03125 39.296875 51.46875 
Q 43.453125 49.90625 45.40625 47.53125 
Q 47.359375 45.171875 48.140625 41.546875 
Q 48.578125 39.3125 48.578125 33.453125 
L 48.578125 21.734375 
Q 48.578125 9.46875 49.140625 6.21875 
Q 49.703125 2.984375 51.375 0 
L 42.1875 0 
Q 40.828125 2.734375 40.4375 6.390625 
z
M 39.703125 26.03125 
Q 34.90625 24.078125 25.34375 22.703125 
Q 19.921875 21.921875 17.671875 20.9375 
Q 15.4375 19.96875 14.203125 18.09375 
Q 12.984375 16.21875 12.984375 13.921875 
Q 12.984375 10.40625 15.640625 8.0625 
Q 18.3125 5.71875 23.4375 5.71875 
Q 28.515625 5.71875 32.46875 7.9375 
Q 36.421875 10.15625 38.28125 14.015625 
Q 39.703125 17 39.703125 22.796875 
z
" id="ArialMT-61"/>
      <path d="M 6.5 0 
L 6.5 51.859375 
L 14.40625 51.859375 
L 14.40625 44 
Q 17.4375 49.515625 20 51.265625 
Q 22.5625 53.03125 25.640625 53.03125 
Q 30.078125 53.03125 34.671875 50.203125 
L 31.640625 42.046875 
Q 28.421875 43.953125 25.203125 43.953125 
Q 22.3125 43.953125 20.015625 42.21875 
Q 17.71875 40.484375 16.75 37.40625 
Q 15.28125 32.71875 15.28125 27.15625 
L 15.28125 0 
z
" id="ArialMT-72"/>
      <path d="M 14.703125 0 
L 6.546875 0 
L 6.546875 71.578125 
L 15.328125 71.578125 
L 15.328125 46.046875 
Q 20.90625 53.03125 29.546875 53.03125 
Q 34.328125 53.03125 38.59375 51.09375 
Q 42.875 49.171875 45.625 45.671875 
Q 48.390625 42.1875 49.953125 37.25 
Q 51.515625 32.328125 51.515625 26.703125 
Q 51.515625 13.375 44.921875 6.09375 
Q 38.328125 -1.171875 29.109375 -1.171875 
Q 19.921875 -1.171875 14.703125 6.5 
z
M 14.59375 26.3125 
Q 14.59375 17 17.140625 12.84375 
Q 21.296875 6.0625 28.375 6.0625 
Q 34.125 6.0625 38.328125 11.0625 
Q 42.53125 16.0625 42.53125 25.984375 
Q 42.53125 36.140625 38.5 40.96875 
Q 34.46875 45.796875 28.765625 45.796875 
Q 23 45.796875 18.796875 40.796875 
Q 14.59375 35.796875 14.59375 26.3125 
z
" id="ArialMT-62"/>
      <path d="M 6.390625 0 
L 6.390625 71.578125 
L 15.1875 71.578125 
L 15.1875 0 
z
" id="ArialMT-6c"/>
     </defs>
     <g style="fill:#262626;" transform="translate(170.8 71.217812)scale(0.1 -0.1)">
      <use transform="translate(0 0.09375)" xlink:href="#ArialMT-76"/>
      <use transform="translate(50 0.09375)" xlink:href="#ArialMT-61"/>
      <use transform="translate(105.615234 0.09375)" xlink:href="#ArialMT-72"/>
      <use transform="translate(138.916016 0.09375)" xlink:href="#ArialMT-69"/>
      <use transform="translate(161.132812 0.09375)" xlink:href="#ArialMT-61"/>
      <use transform="translate(216.748047 0.09375)" xlink:href="#ArialMT-62"/>
      <use transform="translate(272.363281 0.09375)" xlink:href="#ArialMT-6c"/>
      <use transform="translate(294.580078 0.09375)" xlink:href="#ArialMT-65"/>
      <use transform="translate(350.195312 0.09375)" xlink:href="#ArialMT-20"/>
      <use transform="translate(377.978516 0.09375)" xlink:href="#DejaVuSans-394"/>
      <use transform="translate(446.386719 0.09375)" xlink:href="#DejaVuSans-Oblique-78"/>
     </g>
    </g>
   </g>
  </g>
 </g>
 <defs>
  <clipPath id="p312ccfdd49">
   <rect height="108.72" width="223.2" x="7.2" y="7.2"/>
  </clipPath>
 </defs>
</svg>
